# xmcd
#
# Track frame offsets:
#	150
#	21000
#	37012
#	57859
#	83504
#	104392
#	120367
#	141210
#	166945
#	181188
#
# Disc length: 2607 seconds
# Revision: 0
# Processed by: cddbd v1.5.2PL0 Copyright (c) Steve Scherf et al.
# Submitted via: dBpowerAMP V12.0
#
DISCID=740a2d0a
DTITLE=The Light Featuring Rowetta - 1102/2011
DYEAR=2011
DGENRE=
TTITLE0=Atmosphere (Featuring Rowetta)
TTITLE1=Pictures In My Mind (FeaturingPeter Hook)
TTITLE2=New Dawn Fades (Featuring Rowetta)
TTITLE3=Insight (Featuring Rowetta)
TTITLE4=Atmosphere (Instrumental Mix)
TTITLE5=Pictures In My Mind (Instrumental Mix)
TTITLE6=New Dawn Fades (Instrumental Mix)
TTITLE7=Insight (Instrumental Mix)
TTITLE8=Atmosphere (A Capella)
TTITLE9=Atmosphere (A Capella Raw Comp)
EXTD=
EXTT0=
EXTT1=
EXTT2=
EXTT3=
EXTT4=
EXTT5=
EXTT6=
EXTT7=
EXTT8=
EXTT9=
PLAYORDER=
